<svg xmlns="http://www.w3.org/2000/svg" data-name="Layer 1" viewBox="0 0 48 48"><path d="M39 40h-3V7a1 1 0 0 0-1-1H13a1 1 0 0 0-1 1v33H9a1 1 0 0 0 0 2h30a1 1 0 0 0 0-2Zm-18 0v-6h6v6Zm8 0v-6h1a1 1 0 0 0 0-2H18a1 1 0 0 0 0 2h1v6h-5V8h20v32Z"/><path d="M19 11h-2a1 1 0 0 0 0 2h2a1 1 0 0 0 0-2zm6 0h-2a1 1 0 0 0 0 2h2a1 1 0 0 0 0-2zm6 0h-2a1 1 0 0 0 0 2h2a1 1 0 0 0 0-2zm-12 5h-2a1 1 0 0 0 0 2h2a1 1 0 0 0 0-2zm6 0h-2a1 1 0 0 0 0 2h2a1 1 0 0 0 0-2zm6 0h-2a1 1 0 0 0 0 2h2a1 1 0 0 0 0-2zm-12 5h-2a1 1 0 0 0 0 2h2a1 1 0 0 0 0-2zm6 0h-2a1 1 0 0 0 0 2h2a1 1 0 0 0 0-2zm6 0h-2a1 1 0 0 0 0 2h2a1 1 0 0 0 0-2zm-12 5h-2a1 1 0 0 0 0 2h2a1 1 0 0 0 0-2zm6 0h-2a1 1 0 0 0 0 2h2a1 1 0 0 0 0-2zm6 0h-2a1 1 0 0 0 0 2h2a1 1 0 0 0 0-2z"/></svg>